/* XPM */
static char * C:\Users\sg0217473\Documents\workspace\stl3\com_sabre_schemas_stl2Developer_relang_product\icons\application_xpm[] = {
"16 16 141 2",
"  	c #FFFFFF",
". 	c #FEFFFF",
"+ 	c #D2AEB8",
"@ 	c #AE637A",
"# 	c #A24A65",
"$ 	c #A44A65",
"% 	c #B26880",
"& 	c #D5B3BE",
"* 	c #EBDCE1",
"= 	c #99314F",
"- 	c #8F1A3D",
"; 	c #911C3E",
"> 	c #921F41",
", 	c #92183D",
"' 	c #901B3E",
") 	c #943654",
"! 	c #F9F7F8",
"~ 	c #E7D5DC",
"{ 	c #8C183B",
"] 	c #8E1A3F",
"^ 	c #B2677F",
"/ 	c #E1CED5",
"( 	c #FCFBFB",
"_ 	c #FBF8F8",
": 	c #E1CCD4",
"< 	c #A75A71",
"[ 	c #DABAC6",
"} 	c #FAFAFA",
"| 	c #912848",
"1 	c #901A3D",
"2 	c #D2AEBA",
"3 	c #DCE0E7",
"4 	c #9FAAC6",
"5 	c #9DA9C2",
"6 	c #EAECEF",
"7 	c #D7B4BF",
"8 	c #963351",
"9 	c #FDFEFE",
"0 	c #C699A9",
"a 	c #901D3F",
"b 	c #B37387",
"c 	c #B3BCCD",
"d 	c #193979",
"e 	c #21407C",
"f 	c #1C3B79",
"g 	c #B4BDCE",
"h 	c #A85B73",
"i 	c #901C3F",
"j 	c #D2ADB9",
"k 	c #A6566F",
"l 	c #8D193A",
"m 	c #E9DCE1",
"n 	c #D4DAE3",
"o 	c #BEC3D1",
"p 	c #D0D4DE",
"q 	c #99A8C0",
"r 	c #2B4680",
"s 	c #1B3A75",
"t 	c #E8EAEE",
"u 	c #E5D1D7",
"v 	c #8D1A3D",
"w 	c #AB5F78",
"x 	c #FEFEFF",
"y 	c #963353",
"z 	c #902544",
"A 	c #94A2BB",
"B 	c #1C3B7C",
"C 	c #D3D7E1",
"D 	c #919FB9",
"E 	c #1F3E7D",
"F 	c #A4AFC4",
"G 	c #FBF7F9",
"H 	c #8E2143",
"I 	c #9B415C",
"J 	c #953552",
"K 	c #912445",
"L 	c #99A5BD",
"M 	c #1F3E7C",
"N 	c #9BA9C0",
"O 	c #CDD1DD",
"P 	c #1C3C77",
"Q 	c #AAB3C7",
"R 	c #F9F5F6",
"S 	c #8F2042",
"T 	c #9B4460",
"U 	c #A65971",
"V 	c #8E193C",
"W 	c #E7D6DC",
"X 	c #E4E8EB",
"Y 	c #1C3A7C",
"Z 	c #29457E",
"` 	c #8695B4",
" .	c #C4CAD7",
"..	c #C4CAD9",
"+.	c #E4E7EB",
"@.	c #DFCAD0",
"#.	c #8F193B",
"$.	c #AD657B",
"%.	c #CCA4B2",
"&.	c #A75D76",
"*.	c #B8C1CE",
"=.	c #223D7E",
"-.	c #224081",
";.	c #1A3979",
">.	c #B0B9CA",
",.	c #A5546F",
"'.	c #8E1B3D",
").	c #D5B4BF",
"!.	c #943756",
"~.	c #E8D7DC",
"{.	c #F2F5F5",
"].	c #B3BDCD",
"^.	c #B6C1CF",
"/.	c #EFF1F4",
"(.	c #C0889B",
"_.	c #901A3E",
":.	c #983C59",
"<.	c #FDFDFD",
"[.	c #C598A5",
"}.	c #A34D67",
"|.	c #D6B7C2",
"1.	c #F0E7EB",
"2.	c #EFE5E8",
"3.	c #D1B0BB",
"4.	c #A14A64",
"5.	c #911A3E",
"6.	c #902848",
"7.	c #F1EBED",
"8.	c #F7F3F5",
"9.	c #9D3E5B",
"0.	c #8E1A3E",
"a.	c #921A3D",
"b.	c #91183C",
"c.	c #A14A63",
"d.	c #F7F1F3",
"e.	c #DDC4CD",
"f.	c #B97A8E",
"g.	c #A85870",
"h.	c #AA5871",
"i.	c #BB7F91",
"j.	c #E1CBD2",
"                                ",
"        . + @ # $ % &           ",
"      * = - - ; > , ' ) !       ",
"    ~ { ] ^ / ( _ : < [   !     ",
"  } | 1 2   3 4 5 6     7 8 9   ",
"  0 a b     c d e f g   h i j   ",
"  k l m n o   p q r s t u v w   ",
"x y z   A B C     D E F G H I   ",
"  J K   L M N     O P Q R S T   ",
"  U V W X Y Z `  .  ..+.@.#.$.  ",
"  %.; &.  *.=.-.;.>.    ,.'.).  ",
"  9 !.~.    {.].^./.  (._.:.    ",
"    <.  [.}.|.1.2.3.4.5.6.7.    ",
"      8.9.5.0.a.a.b.0.c.d.      ",
"          e.f.g.h.i.j.          ",
"                                "};
